<svg xmlns="http://www.w3.org/2000/svg" xml:space="preserve" width="63.943" height="64.419" style="shape-rendering:geometricPrecision;text-rendering:geometricPrecision;image-rendering:optimizeQuality;fill-rule:evenodd;clip-rule:evenodd" viewBox="0 0 1919.84 1934.14"><defs><style>.fil0{fill:#fff}</style></defs><g id="Capa_x0020_1"><g id="_2296297143376"><path d="m617.8 936.54-36.56-48.9c-61.06 6.2-343.35 187.55-397 239.07-210.08 201.74-16.7 274.77 181.87 265.9 25.06-1.11 123.27-142.44 145.33-171.04 87.35-113.27 88-63.69 233.33-81.44 85.64-10.45 176.52-34.95 257.79-59.98 25.8-7.94 223.81-87.99 229.11-87.45l123.03 156.96c95.09-9.16 439.54-232.9 509.65-319.93 106.5-132.2.27-191.41-121.28-206.03-143.4-17.24-214.41-26.24-287.45 115.07l37.24 41.87-247.37 219.98-18.7-21.03c-28.22-33.94 733.14-860.01 691.39-943.18-25.09-50-314.71-28.83-381.66-29.15-113.3-.53-157.54 104.73-221.8 190.4-80.02 106.68-273.77 394.39-355.25 469.16C831.33 475.75 667.06 275.21 527.8 88.2 435.37-35.92 263.36 7.26 103.58 7.29c-219.53.05-32.48 167.34 36.77 255.53C288.38 451.33 436.87 639.73 584.7 828.74c134.6 172.05 144.07 113.79 7.52 284.76-47.65 59.67-152.71 4.09-112.38-61.43 33.29-54.06 128.44-100.96 137.95-115.54z" class="fil0"/><path d="M966.96 1293.38c79.69 138.75 263.73 353.7 366.8 492.09 113.95 153 86.95 143.46 285.24 143.46 87.92 0 379.46 41.6 261.81-110.42-124.73-161.17-250.83-321.91-376.47-482.41-30.87-39.42-62-82.24-93.96-120.31-66.3-78.99-26.56-66.2-122.96-31.68-111.73 40.01-213.2 83.75-320.46 109.28zM953.48 1297.87c-23.9.02-264.42 62.39-320.35 72.38-53.86 9.61-119.13 18.55-174.63 21.73-99.36 5.7-72.77-13.04-132.51 62.36-48.32 60.99-362.81 403.75-298.75 457.99 37.52 31.77 310.01 16.49 376.19 16.66 111.75.3 151.49-95.85 214.31-179.91 91.64-122.62 267.32-328.94 335.73-451.21z" class="fil0"/></g></g></svg>